solid OpenSCAD_Model
  facet normal -0.353553 0.612375 -0.707105
    outer loop
      vertex -5.55995 20.75 0
      vertex -15.5561 15.5561 0.5
      vertex -5.69392 21.25 0.5
    endloop
  endfacet
  facet normal 0 0.707107 -0.707107
    outer loop
      vertex 5.55995 20.75 0
      vertex -5.55995 20.75 0
      vertex 5.69392 21.25 0.5
    endloop
  endfacet
  facet normal -0.353563 0.612396 -0.707082
    outer loop
      vertex -15.1901 15.1901 0
      vertex -15.5561 15.5561 0.5
      vertex -5.55995 20.75 0
    endloop
  endfacet
  facet normal -1 0 0
    outer loop
      vertex -21.25 -5.69392 0.5
      vertex -21.25 5.69392 9
      vertex -21.25 5.69392 0.5
    endloop
  endfacet
  facet normal -1 -0 0
    outer loop
      vertex -21.25 5.69392 9
      vertex -21.25 -5.69392 0.5
      vertex -21.25 -5.69392 9
    endloop
  endfacet
  facet normal 0.612375 0.353553 -0.707105
    outer loop
      vertex 20.75 5.55995 0
      vertex 15.5561 15.5561 0.5
      vertex 21.25 5.69392 0.5
    endloop
  endfacet
  facet normal -0.707107 0 -0.707107
    outer loop
      vertex -21.25 -5.69392 0.5
      vertex -21.25 5.69392 0.5
      vertex -20.75 -5.55995 0
    endloop
  endfacet
  facet normal -0.353551 -0.612375 -0.707106
    outer loop
      vertex -5.69392 -21.25 0.5
      vertex -15.1901 -15.1901 0
      vertex -5.55995 -20.75 0
    endloop
  endfacet
  facet normal -0.353564 -0.612395 -0.707082
    outer loop
      vertex -5.69392 -21.25 0.5
      vertex -15.5561 -15.5561 0.5
      vertex -15.1901 -15.1901 0
    endloop
  endfacet
  facet normal 0 0.707107 -0.707107
    outer loop
      vertex -5.55995 20.75 0
      vertex -5.69392 21.25 0.5
      vertex 5.69392 21.25 0.5
    endloop
  endfacet
  facet normal 0.707107 0 -0.707107
    outer loop
      vertex 21.25 -5.69392 0.5
      vertex 20.75 5.55995 0
      vertex 21.25 5.69392 0.5
    endloop
  endfacet
  facet normal 0.499998 0.866027 -0
    outer loop
      vertex 15.5561 15.5561 0.5
      vertex 5.69392 21.25 9
      vertex 15.5561 15.5561 9
    endloop
  endfacet
  facet normal 0.499998 0.866027 0
    outer loop
      vertex 5.69392 21.25 9
      vertex 15.5561 15.5561 0.5
      vertex 5.69392 21.25 0.5
    endloop
  endfacet
  facet normal 0.353563 -0.612396 -0.707082
    outer loop
      vertex 15.5561 -15.5561 0.5
      vertex 5.55995 -20.75 0
      vertex 15.1901 -15.1901 0
    endloop
  endfacet
  facet normal -0.499998 -0.866027 0
    outer loop
      vertex -15.5561 -15.5561 0.5
      vertex -5.69392 -21.25 9
      vertex -15.5561 -15.5561 9
    endloop
  endfacet
  facet normal -0.499998 -0.866027 -0
    outer loop
      vertex -5.69392 -21.25 9
      vertex -15.5561 -15.5561 0.5
      vertex -5.69392 -21.25 0.5
    endloop
  endfacet
  facet normal 0.612395 -0.353564 -0.707082
    outer loop
      vertex 15.5561 -15.5561 0.5
      vertex 15.1901 -15.1901 0
      vertex 21.25 -5.69392 0.5
    endloop
  endfacet
  facet normal 0.353551 0.612375 -0.707106
    outer loop
      vertex 15.1901 15.1901 0
      vertex 5.55995 20.75 0
      vertex 5.69392 21.25 0.5
    endloop
  endfacet
  facet normal 0.866027 0.499998 0
    outer loop
      vertex 21.25 5.69392 9
      vertex 15.5561 15.5561 0.5
      vertex 15.5561 15.5561 9
    endloop
  endfacet
  facet normal 0.866027 0.499998 0
    outer loop
      vertex 15.5561 15.5561 0.5
      vertex 21.25 5.69392 9
      vertex 21.25 5.69392 0.5
    endloop
  endfacet
  facet normal 0 0 1
    outer loop
      vertex 21.25 5.69392 9
      vertex 20.25 5.42597 9
      vertex 21.25 -5.69392 9
    endloop
  endfacet
  facet normal 0 0 1
    outer loop
      vertex 15.5561 15.5561 9
      vertex 20.25 5.42597 9
      vertex 21.25 5.69392 9
    endloop
  endfacet
  facet normal 0 0 1
    outer loop
      vertex 15.5561 15.5561 9
      vertex 14.824 14.824 9
      vertex 20.25 5.42597 9
    endloop
  endfacet
  facet normal 0 0 1
    outer loop
      vertex 5.69392 21.25 9
      vertex 14.824 14.824 9
      vertex 15.5561 15.5561 9
    endloop
  endfacet
  facet normal 0 0 1
    outer loop
      vertex 5.69392 21.25 9
      vertex 5.42597 20.25 9
      vertex 14.824 14.824 9
    endloop
  endfacet
  facet normal 0 0 1
    outer loop
      vertex 5.69392 21.25 9
      vertex -5.42597 20.25 9
      vertex 5.42597 20.25 9
    endloop
  endfacet
  facet normal -0 0 1
    outer loop
      vertex -5.69392 21.25 9
      vertex -5.42597 20.25 9
      vertex 5.69392 21.25 9
    endloop
  endfacet
  facet normal 0 0 1
    outer loop
      vertex -5.69392 21.25 9
      vertex -14.824 14.824 9
      vertex -5.42597 20.25 9
    endloop
  endfacet
  facet normal -0 0 1
    outer loop
      vertex -15.5561 15.5561 9
      vertex -14.824 14.824 9
      vertex -5.69392 21.25 9
    endloop
  endfacet
  facet normal 0 0 1
    outer loop
      vertex -15.5561 15.5561 9
      vertex -20.25 5.42597 9
      vertex -14.824 14.824 9
    endloop
  endfacet
  facet normal 0 0 1
    outer loop
      vertex -20.25 5.42597 9
      vertex -21.25 5.69392 9
      vertex -20.25 -5.42597 9
    endloop
  endfacet
  facet normal -0 0 1
    outer loop
      vertex -21.25 5.69392 9
      vertex -20.25 5.42597 9
      vertex -15.5561 15.5561 9
    endloop
  endfacet
  facet normal -0 0 1
    outer loop
      vertex 20.25 -5.42597 9
      vertex 21.25 -5.69392 9
      vertex 20.25 5.42597 9
    endloop
  endfacet
  facet normal 0 0 1
    outer loop
      vertex 20.25 -5.42597 9
      vertex 15.5561 -15.5561 9
      vertex 21.25 -5.69392 9
    endloop
  endfacet
  facet normal -0 0 1
    outer loop
      vertex 14.824 -14.824 9
      vertex 15.5561 -15.5561 9
      vertex 20.25 -5.42597 9
    endloop
  endfacet
  facet normal 0 0 1
    outer loop
      vertex 14.824 -14.824 9
      vertex 5.69392 -21.25 9
      vertex 15.5561 -15.5561 9
    endloop
  endfacet
  facet normal -0 0 1
    outer loop
      vertex 5.42597 -20.25 9
      vertex 5.69392 -21.25 9
      vertex 14.824 -14.824 9
    endloop
  endfacet
  facet normal -0 0 1
    outer loop
      vertex -5.42597 -20.25 9
      vertex 5.69392 -21.25 9
      vertex 5.42597 -20.25 9
    endloop
  endfacet
  facet normal 0 0 1
    outer loop
      vertex -5.42597 -20.25 9
      vertex -5.69392 -21.25 9
      vertex 5.69392 -21.25 9
    endloop
  endfacet
  facet normal 0 0 1
    outer loop
      vertex -14.824 -14.824 9
      vertex -5.69392 -21.25 9
      vertex -5.42597 -20.25 9
    endloop
  endfacet
  facet normal 0 0 1
    outer loop
      vertex -14.824 -14.824 9
      vertex -15.5561 -15.5561 9
      vertex -5.69392 -21.25 9
    endloop
  endfacet
  facet normal 0 0 1
    outer loop
      vertex -20.25 -5.42597 9
      vertex -15.5561 -15.5561 9
      vertex -14.824 -14.824 9
    endloop
  endfacet
  facet normal 0 0 1
    outer loop
      vertex -20.25 -5.42597 9
      vertex -21.25 -5.69392 9
      vertex -15.5561 -15.5561 9
    endloop
  endfacet
  facet normal 0 0 1
    outer loop
      vertex -21.25 -5.69392 9
      vertex -20.25 -5.42597 9
      vertex -21.25 5.69392 9
    endloop
  endfacet
  facet normal -0.612395 0.353564 -0.707082
    outer loop
      vertex -15.1901 15.1901 0
      vertex -21.25 5.69392 0.5
      vertex -15.5561 15.5561 0.5
    endloop
  endfacet
  facet normal 0.353564 0.612395 -0.707082
    outer loop
      vertex 15.1901 15.1901 0
      vertex 5.69392 21.25 0.5
      vertex 15.5561 15.5561 0.5
    endloop
  endfacet
  facet normal -0.612396 -0.353563 -0.707082
    outer loop
      vertex -15.5561 -15.5561 0.5
      vertex -20.75 -5.55995 0
      vertex -15.1901 -15.1901 0
    endloop
  endfacet
  facet normal 0.866027 -0.499998 0
    outer loop
      vertex 15.5561 -15.5561 9
      vertex 21.25 -5.69392 0.5
      vertex 21.25 -5.69392 9
    endloop
  endfacet
  facet normal 0.866027 -0.499998 0
    outer loop
      vertex 21.25 -5.69392 0.5
      vertex 15.5561 -15.5561 9
      vertex 15.5561 -15.5561 0.5
    endloop
  endfacet
  facet normal 0.612396 0.353563 -0.707082
    outer loop
      vertex 20.75 5.55995 0
      vertex 15.1901 15.1901 0
      vertex 15.5561 15.5561 0.5
    endloop
  endfacet
  facet normal 0 1 -0
    outer loop
      vertex 5.69392 21.25 0.5
      vertex -5.69392 21.25 9
      vertex 5.69392 21.25 9
    endloop
  endfacet
  facet normal 0 1 0
    outer loop
      vertex -5.69392 21.25 9
      vertex 5.69392 21.25 0.5
      vertex -5.69392 21.25 0.5
    endloop
  endfacet
  facet normal -0.499998 0.866027 0
    outer loop
      vertex -5.69392 21.25 0.5
      vertex -15.5561 15.5561 9
      vertex -5.69392 21.25 9
    endloop
  endfacet
  facet normal -0.499998 0.866027 0
    outer loop
      vertex -15.5561 15.5561 9
      vertex -5.69392 21.25 0.5
      vertex -15.5561 15.5561 0.5
    endloop
  endfacet
  facet normal -0.866027 0.499998 0
    outer loop
      vertex -21.25 5.69392 0.5
      vertex -15.5561 15.5561 9
      vertex -15.5561 15.5561 0.5
    endloop
  endfacet
  facet normal -0.866027 0.499998 0
    outer loop
      vertex -15.5561 15.5561 9
      vertex -21.25 5.69392 0.5
      vertex -21.25 5.69392 9
    endloop
  endfacet
  facet normal -0.707107 0 -0.707107
    outer loop
      vertex -20.75 -5.55995 0
      vertex -21.25 5.69392 0.5
      vertex -20.75 5.55995 0
    endloop
  endfacet
  facet normal 0.612375 -0.353551 -0.707106
    outer loop
      vertex 21.25 -5.69392 0.5
      vertex 15.1901 -15.1901 0
      vertex 20.75 -5.55995 0
    endloop
  endfacet
  facet normal 0 0 -1
    outer loop
      vertex 20.75 -5.55995 0
      vertex 17.15 -4.59533 0
      vertex 20.75 5.55995 0
    endloop
  endfacet
  facet normal 0 0 -1
    outer loop
      vertex 15.1901 -15.1901 0
      vertex 17.15 -4.59533 0
      vertex 20.75 -5.55995 0
    endloop
  endfacet
  facet normal 0 0 -1
    outer loop
      vertex 15.1901 -15.1901 0
      vertex 12.5547 -12.5547 0
      vertex 17.15 -4.59533 0
    endloop
  endfacet
  facet normal 0 0 -1
    outer loop
      vertex 5.55995 -20.75 0
      vertex 12.5547 -12.5547 0
      vertex 15.1901 -15.1901 0
    endloop
  endfacet
  facet normal 0 0 -1
    outer loop
      vertex 5.55995 -20.75 0
      vertex 4.59533 -17.15 0
      vertex 12.5547 -12.5547 0
    endloop
  endfacet
  facet normal 0 0 -1
    outer loop
      vertex 5.55995 -20.75 0
      vertex -4.59533 -17.15 0
      vertex 4.59533 -17.15 0
    endloop
  endfacet
  facet normal 0 0 -1
    outer loop
      vertex -5.55995 -20.75 0
      vertex -4.59533 -17.15 0
      vertex 5.55995 -20.75 0
    endloop
  endfacet
  facet normal 0 0 -1
    outer loop
      vertex -5.55995 -20.75 0
      vertex -12.5547 -12.5547 0
      vertex -4.59533 -17.15 0
    endloop
  endfacet
  facet normal 0 0 -1
    outer loop
      vertex -15.1901 -15.1901 0
      vertex -12.5547 -12.5547 0
      vertex -5.55995 -20.75 0
    endloop
  endfacet
  facet normal 0 0 -1
    outer loop
      vertex -15.1901 -15.1901 0
      vertex -17.15 -4.59533 0
      vertex -12.5547 -12.5547 0
    endloop
  endfacet
  facet normal -0 0 -1
    outer loop
      vertex -17.15 -4.59533 0
      vertex -20.75 -5.55995 0
      vertex -17.15 4.59533 0
    endloop
  endfacet
  facet normal 0 0 -1
    outer loop
      vertex -20.75 -5.55995 0
      vertex -17.15 -4.59533 0
      vertex -15.1901 -15.1901 0
    endloop
  endfacet
  facet normal 0 0 -1
    outer loop
      vertex 17.15 4.59533 0
      vertex 20.75 5.55995 0
      vertex 17.15 -4.59533 0
    endloop
  endfacet
  facet normal 0 0 -1
    outer loop
      vertex 17.15 4.59533 0
      vertex 15.1901 15.1901 0
      vertex 20.75 5.55995 0
    endloop
  endfacet
  facet normal 0 0 -1
    outer loop
      vertex 12.5547 12.5547 0
      vertex 15.1901 15.1901 0
      vertex 17.15 4.59533 0
    endloop
  endfacet
  facet normal 0 0 -1
    outer loop
      vertex 12.5547 12.5547 0
      vertex 5.55995 20.75 0
      vertex 15.1901 15.1901 0
    endloop
  endfacet
  facet normal 0 0 -1
    outer loop
      vertex 4.59533 17.15 0
      vertex 5.55995 20.75 0
      vertex 12.5547 12.5547 0
    endloop
  endfacet
  facet normal 0 0 -1
    outer loop
      vertex -4.59533 17.15 0
      vertex 5.55995 20.75 0
      vertex 4.59533 17.15 0
    endloop
  endfacet
  facet normal 0 0 -1
    outer loop
      vertex -4.59533 17.15 0
      vertex -5.55995 20.75 0
      vertex 5.55995 20.75 0
    endloop
  endfacet
  facet normal 0 0 -1
    outer loop
      vertex -12.5547 12.5547 0
      vertex -5.55995 20.75 0
      vertex -4.59533 17.15 0
    endloop
  endfacet
  facet normal 0 0 -1
    outer loop
      vertex -12.5547 12.5547 0
      vertex -15.1901 15.1901 0
      vertex -5.55995 20.75 0
    endloop
  endfacet
  facet normal 0 0 -1
    outer loop
      vertex -17.15 4.59533 0
      vertex -15.1901 15.1901 0
      vertex -12.5547 12.5547 0
    endloop
  endfacet
  facet normal 0 0 -1
    outer loop
      vertex -20.75 5.55995 0
      vertex -17.15 4.59533 0
      vertex -20.75 -5.55995 0
    endloop
  endfacet
  facet normal 0 0 -1
    outer loop
      vertex -17.15 4.59533 0
      vertex -20.75 5.55995 0
      vertex -15.1901 15.1901 0
    endloop
  endfacet
  facet normal 0.707107 0 -0.707107
    outer loop
      vertex 21.25 -5.69392 0.5
      vertex 20.75 -5.55995 0
      vertex 20.75 5.55995 0
    endloop
  endfacet
  facet normal 1 -0 0
    outer loop
      vertex 21.25 -5.69392 9
      vertex 21.25 5.69392 0.5
      vertex 21.25 5.69392 9
    endloop
  endfacet
  facet normal 1 0 0
    outer loop
      vertex 21.25 5.69392 0.5
      vertex 21.25 -5.69392 9
      vertex 21.25 -5.69392 0.5
    endloop
  endfacet
  facet normal -0.612375 0.353551 -0.707106
    outer loop
      vertex -20.75 5.55995 0
      vertex -21.25 5.69392 0.5
      vertex -15.1901 15.1901 0
    endloop
  endfacet
  facet normal 0.353553 -0.612375 -0.707105
    outer loop
      vertex 5.69392 -21.25 0.5
      vertex 5.55995 -20.75 0
      vertex 15.5561 -15.5561 0.5
    endloop
  endfacet
  facet normal -0.612375 -0.353553 -0.707105
    outer loop
      vertex -15.5561 -15.5561 0.5
      vertex -21.25 -5.69392 0.5
      vertex -20.75 -5.55995 0
    endloop
  endfacet
  facet normal -0.866027 -0.499998 0
    outer loop
      vertex -15.5561 -15.5561 0.5
      vertex -21.25 -5.69392 9
      vertex -21.25 -5.69392 0.5
    endloop
  endfacet
  facet normal -0.866027 -0.499998 0
    outer loop
      vertex -21.25 -5.69392 9
      vertex -15.5561 -15.5561 0.5
      vertex -15.5561 -15.5561 9
    endloop
  endfacet
  facet normal 0 -1 0
    outer loop
      vertex -5.69392 -21.25 0.5
      vertex 5.69392 -21.25 9
      vertex -5.69392 -21.25 9
    endloop
  endfacet
  facet normal 0 -1 -0
    outer loop
      vertex 5.69392 -21.25 9
      vertex -5.69392 -21.25 0.5
      vertex 5.69392 -21.25 0.5
    endloop
  endfacet
  facet normal -0 -0.707107 -0.707107
    outer loop
      vertex 5.69392 -21.25 0.5
      vertex -5.69392 -21.25 0.5
      vertex 5.55995 -20.75 0
    endloop
  endfacet
  facet normal -0 -0.707107 -0.707107
    outer loop
      vertex 5.55995 -20.75 0
      vertex -5.69392 -21.25 0.5
      vertex -5.55995 -20.75 0
    endloop
  endfacet
  facet normal 0.499998 -0.866027 0
    outer loop
      vertex 5.69392 -21.25 0.5
      vertex 15.5561 -15.5561 9
      vertex 5.69392 -21.25 9
    endloop
  endfacet
  facet normal 0.499998 -0.866027 0
    outer loop
      vertex 15.5561 -15.5561 9
      vertex 5.69392 -21.25 0.5
      vertex 15.5561 -15.5561 0.5
    endloop
  endfacet
  facet normal -1 0 0
    outer loop
      vertex -20.25 -5.42597 9
      vertex -20.25 5.42597 18
      vertex -20.25 5.42597 9
    endloop
  endfacet
  facet normal -1 -0 0
    outer loop
      vertex -20.25 5.42597 18
      vertex -20.25 -5.42597 9
      vertex -20.25 -5.42597 18
    endloop
  endfacet
  facet normal 0.866024 -0.500003 0
    outer loop
      vertex 14.824 -14.824 18
      vertex 20.25 -5.42597 9
      vertex 20.25 -5.42597 18
    endloop
  endfacet
  facet normal 0.866024 -0.500003 0
    outer loop
      vertex 20.25 -5.42597 9
      vertex 14.824 -14.824 18
      vertex 14.824 -14.824 9
    endloop
  endfacet
  facet normal -0.500003 -0.866024 0
    outer loop
      vertex -14.824 -14.824 9
      vertex -5.42597 -20.25 18
      vertex -14.824 -14.824 18
    endloop
  endfacet
  facet normal -0.500003 -0.866024 -0
    outer loop
      vertex -5.42597 -20.25 18
      vertex -14.824 -14.824 9
      vertex -5.42597 -20.25 9
    endloop
  endfacet
  facet normal -0.866024 0.500003 0
    outer loop
      vertex -20.25 5.42597 9
      vertex -14.824 14.824 18
      vertex -14.824 14.824 9
    endloop
  endfacet
  facet normal -0.866024 0.500003 0
    outer loop
      vertex -14.824 14.824 18
      vertex -20.25 5.42597 9
      vertex -20.25 5.42597 18
    endloop
  endfacet
  facet normal -0.500003 0.866024 0
    outer loop
      vertex -5.42597 20.25 9
      vertex -14.824 14.824 18
      vertex -5.42597 20.25 18
    endloop
  endfacet
  facet normal -0.500003 0.866024 0
    outer loop
      vertex -14.824 14.824 18
      vertex -5.42597 20.25 9
      vertex -14.824 14.824 9
    endloop
  endfacet
  facet normal 1 -0 0
    outer loop
      vertex 20.25 -5.42597 18
      vertex 20.25 5.42597 9
      vertex 20.25 5.42597 18
    endloop
  endfacet
  facet normal 1 0 0
    outer loop
      vertex 20.25 5.42597 9
      vertex 20.25 -5.42597 18
      vertex 20.25 -5.42597 9
    endloop
  endfacet
  facet normal 0 -1 0
    outer loop
      vertex -5.42597 -20.25 9
      vertex 5.42597 -20.25 18
      vertex -5.42597 -20.25 18
    endloop
  endfacet
  facet normal 0 -1 -0
    outer loop
      vertex 5.42597 -20.25 18
      vertex -5.42597 -20.25 9
      vertex 5.42597 -20.25 9
    endloop
  endfacet
  facet normal 0.500003 -0.866024 0
    outer loop
      vertex 5.42597 -20.25 9
      vertex 14.824 -14.824 18
      vertex 5.42597 -20.25 18
    endloop
  endfacet
  facet normal 0.500003 -0.866024 0
    outer loop
      vertex 14.824 -14.824 18
      vertex 5.42597 -20.25 9
      vertex 14.824 -14.824 9
    endloop
  endfacet
  facet normal 0.500003 0.866024 -0
    outer loop
      vertex 14.824 14.824 9
      vertex 5.42597 20.25 18
      vertex 14.824 14.824 18
    endloop
  endfacet
  facet normal 0.500003 0.866024 0
    outer loop
      vertex 5.42597 20.25 18
      vertex 14.824 14.824 9
      vertex 5.42597 20.25 9
    endloop
  endfacet
  facet normal 0 0 1
    outer loop
      vertex 20.25 5.42597 18
      vertex 18.85 5.05084 18
      vertex 20.25 -5.42597 18
    endloop
  endfacet
  facet normal 0 0 1
    outer loop
      vertex 14.824 14.824 18
      vertex 18.85 5.05084 18
      vertex 20.25 5.42597 18
    endloop
  endfacet
  facet normal 0 0 1
    outer loop
      vertex 14.824 14.824 18
      vertex 13.7992 13.7992 18
      vertex 18.85 5.05084 18
    endloop
  endfacet
  facet normal 0 0 1
    outer loop
      vertex 5.42597 20.25 18
      vertex 13.7992 13.7992 18
      vertex 14.824 14.824 18
    endloop
  endfacet
  facet normal 0 0 1
    outer loop
      vertex 5.42597 20.25 18
      vertex 5.05084 18.85 18
      vertex 13.7992 13.7992 18
    endloop
  endfacet
  facet normal 0 0 1
    outer loop
      vertex 5.42597 20.25 18
      vertex -5.05084 18.85 18
      vertex 5.05084 18.85 18
    endloop
  endfacet
  facet normal -0 0 1
    outer loop
      vertex -5.42597 20.25 18
      vertex -5.05084 18.85 18
      vertex 5.42597 20.25 18
    endloop
  endfacet
  facet normal 0 0 1
    outer loop
      vertex -5.42597 20.25 18
      vertex -13.7992 13.7992 18
      vertex -5.05084 18.85 18
    endloop
  endfacet
  facet normal -0 0 1
    outer loop
      vertex -14.824 14.824 18
      vertex -13.7992 13.7992 18
      vertex -5.42597 20.25 18
    endloop
  endfacet
  facet normal 0 0 1
    outer loop
      vertex -14.824 14.824 18
      vertex -18.85 5.05084 18
      vertex -13.7992 13.7992 18
    endloop
  endfacet
  facet normal 0 0 1
    outer loop
      vertex -18.85 5.05084 18
      vertex -20.25 5.42597 18
      vertex -18.85 -5.05084 18
    endloop
  endfacet
  facet normal -0 0 1
    outer loop
      vertex -20.25 5.42597 18
      vertex -18.85 5.05084 18
      vertex -14.824 14.824 18
    endloop
  endfacet
  facet normal -0 0 1
    outer loop
      vertex 18.85 -5.05084 18
      vertex 20.25 -5.42597 18
      vertex 18.85 5.05084 18
    endloop
  endfacet
  facet normal 0 0 1
    outer loop
      vertex 18.85 -5.05084 18
      vertex 14.824 -14.824 18
      vertex 20.25 -5.42597 18
    endloop
  endfacet
  facet normal -0 0 1
    outer loop
      vertex 13.7992 -13.7992 18
      vertex 14.824 -14.824 18
      vertex 18.85 -5.05084 18
    endloop
  endfacet
  facet normal 0 0 1
    outer loop
      vertex 13.7992 -13.7992 18
      vertex 5.42597 -20.25 18
      vertex 14.824 -14.824 18
    endloop
  endfacet
  facet normal -0 0 1
    outer loop
      vertex 5.05084 -18.85 18
      vertex 5.42597 -20.25 18
      vertex 13.7992 -13.7992 18
    endloop
  endfacet
  facet normal -0 0 1
    outer loop
      vertex -5.05084 -18.85 18
      vertex 5.42597 -20.25 18
      vertex 5.05084 -18.85 18
    endloop
  endfacet
  facet normal 0 0 1
    outer loop
      vertex -5.05084 -18.85 18
      vertex -5.42597 -20.25 18
      vertex 5.42597 -20.25 18
    endloop
  endfacet
  facet normal 0 0 1
    outer loop
      vertex -13.7992 -13.7992 18
      vertex -5.42597 -20.25 18
      vertex -5.05084 -18.85 18
    endloop
  endfacet
  facet normal 0 0 1
    outer loop
      vertex -13.7992 -13.7992 18
      vertex -14.824 -14.824 18
      vertex -5.42597 -20.25 18
    endloop
  endfacet
  facet normal 0 0 1
    outer loop
      vertex -18.85 -5.05084 18
      vertex -14.824 -14.824 18
      vertex -13.7992 -13.7992 18
    endloop
  endfacet
  facet normal 0 0 1
    outer loop
      vertex -18.85 -5.05084 18
      vertex -20.25 -5.42597 18
      vertex -14.824 -14.824 18
    endloop
  endfacet
  facet normal 0 0 1
    outer loop
      vertex -20.25 -5.42597 18
      vertex -18.85 -5.05084 18
      vertex -20.25 5.42597 18
    endloop
  endfacet
  facet normal -0.866024 -0.500003 0
    outer loop
      vertex -14.824 -14.824 9
      vertex -20.25 -5.42597 18
      vertex -20.25 -5.42597 9
    endloop
  endfacet
  facet normal -0.866024 -0.500003 0
    outer loop
      vertex -20.25 -5.42597 18
      vertex -14.824 -14.824 9
      vertex -14.824 -14.824 18
    endloop
  endfacet
  facet normal 0.866024 0.500003 0
    outer loop
      vertex 20.25 5.42597 18
      vertex 14.824 14.824 9
      vertex 14.824 14.824 18
    endloop
  endfacet
  facet normal 0.866024 0.500003 0
    outer loop
      vertex 14.824 14.824 9
      vertex 20.25 5.42597 18
      vertex 20.25 5.42597 9
    endloop
  endfacet
  facet normal 0 1 -0
    outer loop
      vertex 5.42597 20.25 9
      vertex -5.42597 20.25 18
      vertex 5.42597 20.25 18
    endloop
  endfacet
  facet normal 0 1 0
    outer loop
      vertex -5.42597 20.25 18
      vertex 5.42597 20.25 9
      vertex -5.42597 20.25 9
    endloop
  endfacet
  facet normal 0.866024 0.500003 0
    outer loop
      vertex -13.3599 -13.3599 17.4
      vertex -18.25 -4.89007 1.6
      vertex -18.25 -4.89007 17.4
    endloop
  endfacet
  facet normal 0.866024 0.500003 0
    outer loop
      vertex -18.25 -4.89007 1.6
      vertex -13.3599 -13.3599 17.4
      vertex -13.3599 -13.3599 1.6
    endloop
  endfacet
  facet normal -0.500003 -0.866024 0
    outer loop
      vertex 4.89007 18.25 1.6
      vertex 13.3599 13.3599 17.4
      vertex 4.89007 18.25 17.4
    endloop
  endfacet
  facet normal -0.500003 -0.866024 -0
    outer loop
      vertex 13.3599 13.3599 17.4
      vertex 4.89007 18.25 1.6
      vertex 13.3599 13.3599 1.6
    endloop
  endfacet
  facet normal -0.866024 -0.500003 0
    outer loop
      vertex 18.25 4.89007 1.6
      vertex 13.3599 13.3599 17.4
      vertex 13.3599 13.3599 1.6
    endloop
  endfacet
  facet normal -0.866024 -0.500003 0
    outer loop
      vertex 13.3599 13.3599 17.4
      vertex 18.25 4.89007 1.6
      vertex 18.25 4.89007 17.4
    endloop
  endfacet
  facet normal 0.866024 -0.500003 0
    outer loop
      vertex -18.25 4.89007 17.4
      vertex -13.3599 13.3599 1.6
      vertex -13.3599 13.3599 17.4
    endloop
  endfacet
  facet normal 0.866024 -0.500003 0
    outer loop
      vertex -13.3599 13.3599 1.6
      vertex -18.25 4.89007 17.4
      vertex -18.25 4.89007 1.6
    endloop
  endfacet
  facet normal -1 0 0
    outer loop
      vertex 18.25 -4.89007 1.6
      vertex 18.25 4.89007 17.4
      vertex 18.25 4.89007 1.6
    endloop
  endfacet
  facet normal -1 -0 0
    outer loop
      vertex 18.25 4.89007 17.4
      vertex 18.25 -4.89007 1.6
      vertex 18.25 -4.89007 17.4
    endloop
  endfacet
  facet normal 0 -1 0
    outer loop
      vertex -4.89007 18.25 1.6
      vertex 4.89007 18.25 17.4
      vertex -4.89007 18.25 17.4
    endloop
  endfacet
  facet normal 0 -1 -0
    outer loop
      vertex 4.89007 18.25 17.4
      vertex -4.89007 18.25 1.6
      vertex 4.89007 18.25 1.6
    endloop
  endfacet
  facet normal 0.500003 0.866024 -0
    outer loop
      vertex -4.89007 -18.25 1.6
      vertex -13.3599 -13.3599 17.4
      vertex -4.89007 -18.25 17.4
    endloop
  endfacet
  facet normal 0.500003 0.866024 0
    outer loop
      vertex -13.3599 -13.3599 17.4
      vertex -4.89007 -18.25 1.6
      vertex -13.3599 -13.3599 1.6
    endloop
  endfacet
  facet normal 0 1 -0
    outer loop
      vertex 4.89007 -18.25 1.6
      vertex -4.89007 -18.25 17.4
      vertex 4.89007 -18.25 17.4
    endloop
  endfacet
  facet normal 0 1 0
    outer loop
      vertex -4.89007 -18.25 17.4
      vertex 4.89007 -18.25 1.6
      vertex -4.89007 -18.25 1.6
    endloop
  endfacet
  facet normal 0.500003 -0.866024 0
    outer loop
      vertex -13.3599 13.3599 1.6
      vertex -4.89007 18.25 17.4
      vertex -13.3599 13.3599 17.4
    endloop
  endfacet
  facet normal 0.500003 -0.866024 0
    outer loop
      vertex -4.89007 18.25 17.4
      vertex -13.3599 13.3599 1.6
      vertex -4.89007 18.25 1.6
    endloop
  endfacet
  facet normal -0.500003 0.866024 0
    outer loop
      vertex 13.3599 -13.3599 1.6
      vertex 4.89007 -18.25 17.4
      vertex 13.3599 -13.3599 17.4
    endloop
  endfacet
  facet normal -0.500003 0.866024 0
    outer loop
      vertex 4.89007 -18.25 17.4
      vertex 13.3599 -13.3599 1.6
      vertex 4.89007 -18.25 1.6
    endloop
  endfacet
  facet normal -0.866024 0.500003 0
    outer loop
      vertex 13.3599 -13.3599 1.6
      vertex 18.25 -4.89007 17.4
      vertex 18.25 -4.89007 1.6
    endloop
  endfacet
  facet normal -0.866024 0.500003 0
    outer loop
      vertex 18.25 -4.89007 17.4
      vertex 13.3599 -13.3599 1.6
      vertex 13.3599 -13.3599 17.4
    endloop
  endfacet
  facet normal 1 -0 0
    outer loop
      vertex -18.25 -4.89007 17.4
      vertex -18.25 4.89007 1.6
      vertex -18.25 4.89007 17.4
    endloop
  endfacet
  facet normal 1 0 0
    outer loop
      vertex -18.25 4.89007 1.6
      vertex -18.25 -4.89007 17.4
      vertex -18.25 -4.89007 1.6
    endloop
  endfacet
  facet normal 0 0 1
    outer loop
      vertex 18.25 4.89007 1.6
      vertex 16.7672 4.49276 1.6
      vertex 18.25 -4.89007 1.6
    endloop
  endfacet
  facet normal 0 0 1
    outer loop
      vertex 18.25 4.89007 1.6
      vertex 15.6899 6.35883 1.6
      vertex 16.7672 4.49276 1.6
    endloop
  endfacet
  facet normal 0 0 1
    outer loop
      vertex 13.3599 13.3599 1.6
      vertex 15.6899 6.35883 1.6
      vertex 18.25 4.89007 1.6
    endloop
  endfacet
  facet normal 0 0 1
    outer loop
      vertex 13.3599 13.3599 1.6
      vertex 12.2745 12.2745 1.6
      vertex 15.6899 6.35883 1.6
    endloop
  endfacet
  facet normal 0 0 1
    outer loop
      vertex 13.3599 13.3599 1.6
      vertex 6.35883 15.6899 1.6
      vertex 12.2745 12.2745 1.6
    endloop
  endfacet
  facet normal 0 0 1
    outer loop
      vertex 4.89007 18.25 1.6
      vertex 6.35883 15.6899 1.6
      vertex 13.3599 13.3599 1.6
    endloop
  endfacet
  facet normal 0 0 1
    outer loop
      vertex 4.89007 18.25 1.6
      vertex 4.49276 16.7672 1.6
      vertex 6.35883 15.6899 1.6
    endloop
  endfacet
  facet normal 0 0 1
    outer loop
      vertex 4.89007 18.25 1.6
      vertex -4.49276 16.7672 1.6
      vertex 4.49276 16.7672 1.6
    endloop
  endfacet
  facet normal -0 0 1
    outer loop
      vertex -4.89007 18.25 1.6
      vertex -4.49276 16.7672 1.6
      vertex 4.89007 18.25 1.6
    endloop
  endfacet
  facet normal 0 0 1
    outer loop
      vertex -4.89007 18.25 1.6
      vertex -6.35883 15.6899 1.6
      vertex -4.49276 16.7672 1.6
    endloop
  endfacet
  facet normal 0 0 1
    outer loop
      vertex -13.3599 13.3599 1.6
      vertex -6.35883 15.6899 1.6
      vertex -4.89007 18.25 1.6
    endloop
  endfacet
  facet normal 0 0 1
    outer loop
      vertex -6.35883 15.6899 1.6
      vertex -13.3599 13.3599 1.6
      vertex -12.2745 12.2745 1.6
    endloop
  endfacet
  facet normal 0 0 1
    outer loop
      vertex -13.3599 13.3599 1.6
      vertex -15.6899 6.35883 1.6
      vertex -12.2745 12.2745 1.6
    endloop
  endfacet
  facet normal 0 0 1
    outer loop
      vertex -18.25 4.89007 1.6
      vertex -15.6899 6.35883 1.6
      vertex -13.3599 13.3599 1.6
    endloop
  endfacet
  facet normal 0 0 1
    outer loop
      vertex -16.7672 4.49276 1.6
      vertex -18.25 4.89007 1.6
      vertex -16.7672 -4.49276 1.6
    endloop
  endfacet
  facet normal 0 0 1
    outer loop
      vertex -15.6899 6.35883 1.6
      vertex -18.25 4.89007 1.6
      vertex -16.7672 4.49276 1.6
    endloop
  endfacet
  facet normal -0 0 1
    outer loop
      vertex 16.7672 -4.49276 1.6
      vertex 18.25 -4.89007 1.6
      vertex 16.7672 4.49276 1.6
    endloop
  endfacet
  facet normal 0 0 1
    outer loop
      vertex 15.6899 -6.35883 1.6
      vertex 18.25 -4.89007 1.6
      vertex 16.7672 -4.49276 1.6
    endloop
  endfacet
  facet normal -0 0 1
    outer loop
      vertex 15.6899 -6.35883 1.6
      vertex 13.3599 -13.3599 1.6
      vertex 18.25 -4.89007 1.6
    endloop
  endfacet
  facet normal -0 0 1
    outer loop
      vertex 12.2745 -12.2745 1.6
      vertex 13.3599 -13.3599 1.6
      vertex 15.6899 -6.35883 1.6
    endloop
  endfacet
  facet normal 0 0 1
    outer loop
      vertex 6.35883 -15.6899 1.6
      vertex 13.3599 -13.3599 1.6
      vertex 12.2745 -12.2745 1.6
    endloop
  endfacet
  facet normal -0 0 1
    outer loop
      vertex 6.35883 -15.6899 1.6
      vertex 4.89007 -18.25 1.6
      vertex 13.3599 -13.3599 1.6
    endloop
  endfacet
  facet normal -0 0 1
    outer loop
      vertex 4.49276 -16.7672 1.6
      vertex 4.89007 -18.25 1.6
      vertex 6.35883 -15.6899 1.6
    endloop
  endfacet
  facet normal -0 0 1
    outer loop
      vertex -4.49276 -16.7672 1.6
      vertex 4.89007 -18.25 1.6
      vertex 4.49276 -16.7672 1.6
    endloop
  endfacet
  facet normal 0 0 1
    outer loop
      vertex -4.49276 -16.7672 1.6
      vertex -4.89007 -18.25 1.6
      vertex 4.89007 -18.25 1.6
    endloop
  endfacet
  facet normal 0 0 1
    outer loop
      vertex -6.35883 -15.6899 1.6
      vertex -4.89007 -18.25 1.6
      vertex -4.49276 -16.7672 1.6
    endloop
  endfacet
  facet normal -0 0 1
    outer loop
      vertex -13.3599 -13.3599 1.6
      vertex -6.35883 -15.6899 1.6
      vertex -12.2745 -12.2745 1.6
    endloop
  endfacet
  facet normal 0 0 1
    outer loop
      vertex -6.35883 -15.6899 1.6
      vertex -13.3599 -13.3599 1.6
      vertex -4.89007 -18.25 1.6
    endloop
  endfacet
  facet normal 0 0 1
    outer loop
      vertex -15.6899 -6.35883 1.6
      vertex -13.3599 -13.3599 1.6
      vertex -12.2745 -12.2745 1.6
    endloop
  endfacet
  facet normal -0 0 1
    outer loop
      vertex -18.25 -4.89007 1.6
      vertex -15.6899 -6.35883 1.6
      vertex -16.7672 -4.49276 1.6
    endloop
  endfacet
  facet normal 0 0 1
    outer loop
      vertex -15.6899 -6.35883 1.6
      vertex -18.25 -4.89007 1.6
      vertex -13.3599 -13.3599 1.6
    endloop
  endfacet
  facet normal 0 0 1
    outer loop
      vertex -18.25 -4.89007 1.6
      vertex -16.7672 -4.49276 1.6
      vertex -18.25 4.89007 1.6
    endloop
  endfacet
  facet normal -0.842261 0.486278 -0.23266
    outer loop
      vertex 15.6899 -6.35883 1.6
      vertex 12.5547 -12.5547 0
      vertex 12.2745 -12.2745 1.6
    endloop
  endfacet
  facet normal -0.486278 -0.842261 -0.23266
    outer loop
      vertex 12.5547 12.5547 0
      vertex 12.2745 12.2745 1.6
      vertex 6.35883 15.6899 1.6
    endloop
  endfacet
  facet normal -0.486278 0.842261 -0.23266
    outer loop
      vertex 12.2745 -12.2745 1.6
      vertex 12.5547 -12.5547 0
      vertex 6.35883 -15.6899 1.6
    endloop
  endfacet
  facet normal -0.842261 -0.486278 -0.23266
    outer loop
      vertex 12.5547 12.5547 0
      vertex 15.6899 6.35883 1.6
      vertex 12.2745 12.2745 1.6
    endloop
  endfacet
  facet normal -0.842264 -0.486277 -0.232651
    outer loop
      vertex 17.15 4.59533 0
      vertex 15.6899 6.35883 1.6
      vertex 12.5547 12.5547 0
    endloop
  endfacet
  facet normal -0.84227 -0.48625 -0.232685
    outer loop
      vertex 15.6899 6.35883 1.6
      vertex 17.15 4.59533 0
      vertex 16.7672 4.49276 1.6
    endloop
  endfacet
  facet normal 0 -0.972553 -0.232683
    outer loop
      vertex -4.59533 17.15 0
      vertex 4.49276 16.7672 1.6
      vertex -4.49276 16.7672 1.6
    endloop
  endfacet
  facet normal 0 -0.972553 -0.232683
    outer loop
      vertex 4.49276 16.7672 1.6
      vertex -4.59533 17.15 0
      vertex 4.59533 17.15 0
    endloop
  endfacet
  facet normal 0.842261 0.486278 -0.23266
    outer loop
      vertex -12.2745 -12.2745 1.6
      vertex -12.5547 -12.5547 0
      vertex -15.6899 -6.35883 1.6
    endloop
  endfacet
  facet normal 0.486278 0.842261 -0.23266
    outer loop
      vertex -12.2745 -12.2745 1.6
      vertex -6.35883 -15.6899 1.6
      vertex -12.5547 -12.5547 0
    endloop
  endfacet
  facet normal 0.486277 -0.842264 -0.232651
    outer loop
      vertex -4.59533 17.15 0
      vertex -6.35883 15.6899 1.6
      vertex -12.5547 12.5547 0
    endloop
  endfacet
  facet normal 0.48625 -0.84227 -0.232685
    outer loop
      vertex -6.35883 15.6899 1.6
      vertex -4.59533 17.15 0
      vertex -4.49276 16.7672 1.6
    endloop
  endfacet
  facet normal -0.972553 0 -0.232683
    outer loop
      vertex 17.15 4.59533 0
      vertex 16.7672 -4.49276 1.6
      vertex 16.7672 4.49276 1.6
    endloop
  endfacet
  facet normal -0.972553 0 -0.232683
    outer loop
      vertex 16.7672 -4.49276 1.6
      vertex 17.15 4.59533 0
      vertex 17.15 -4.59533 0
    endloop
  endfacet
  facet normal 0.48625 0.84227 -0.232685
    outer loop
      vertex -4.59533 -17.15 0
      vertex -6.35883 -15.6899 1.6
      vertex -4.49276 -16.7672 1.6
    endloop
  endfacet
  facet normal 0.486277 0.842264 -0.232651
    outer loop
      vertex -6.35883 -15.6899 1.6
      vertex -4.59533 -17.15 0
      vertex -12.5547 -12.5547 0
    endloop
  endfacet
  facet normal 0.486278 -0.842261 -0.23266
    outer loop
      vertex -6.35883 15.6899 1.6
      vertex -12.2745 12.2745 1.6
      vertex -12.5547 12.5547 0
    endloop
  endfacet
  facet normal 0.842264 -0.486277 -0.232651
    outer loop
      vertex -15.6899 6.35883 1.6
      vertex -17.15 4.59533 0
      vertex -12.5547 12.5547 0
    endloop
  endfacet
  facet normal 0.84227 -0.48625 -0.232685
    outer loop
      vertex -17.15 4.59533 0
      vertex -15.6899 6.35883 1.6
      vertex -16.7672 4.49276 1.6
    endloop
  endfacet
  facet normal -0.84227 0.48625 -0.232685
    outer loop
      vertex 17.15 -4.59533 0
      vertex 15.6899 -6.35883 1.6
      vertex 16.7672 -4.49276 1.6
    endloop
  endfacet
  facet normal -0.842264 0.486277 -0.232651
    outer loop
      vertex 15.6899 -6.35883 1.6
      vertex 17.15 -4.59533 0
      vertex 12.5547 -12.5547 0
    endloop
  endfacet
  facet normal 0.84227 0.48625 -0.232685
    outer loop
      vertex -15.6899 -6.35883 1.6
      vertex -17.15 -4.59533 0
      vertex -16.7672 -4.49276 1.6
    endloop
  endfacet
  facet normal 0.842264 0.486277 -0.232651
    outer loop
      vertex -17.15 -4.59533 0
      vertex -15.6899 -6.35883 1.6
      vertex -12.5547 -12.5547 0
    endloop
  endfacet
  facet normal 0.972553 0 -0.232683
    outer loop
      vertex -16.7672 -4.49276 1.6
      vertex -17.15 4.59533 0
      vertex -16.7672 4.49276 1.6
    endloop
  endfacet
  facet normal 0.972553 0 -0.232683
    outer loop
      vertex -17.15 4.59533 0
      vertex -16.7672 -4.49276 1.6
      vertex -17.15 -4.59533 0
    endloop
  endfacet
  facet normal -0.486277 0.842264 -0.232651
    outer loop
      vertex 4.59533 -17.15 0
      vertex 6.35883 -15.6899 1.6
      vertex 12.5547 -12.5547 0
    endloop
  endfacet
  facet normal -0.48625 0.84227 -0.232685
    outer loop
      vertex 6.35883 -15.6899 1.6
      vertex 4.59533 -17.15 0
      vertex 4.49276 -16.7672 1.6
    endloop
  endfacet
  facet normal 0.842261 -0.486278 -0.23266
    outer loop
      vertex -12.5547 12.5547 0
      vertex -12.2745 12.2745 1.6
      vertex -15.6899 6.35883 1.6
    endloop
  endfacet
  facet normal 0 0.972553 -0.232683
    outer loop
      vertex 4.59533 -17.15 0
      vertex -4.49276 -16.7672 1.6
      vertex 4.49276 -16.7672 1.6
    endloop
  endfacet
  facet normal 0 0.972553 -0.232683
    outer loop
      vertex -4.49276 -16.7672 1.6
      vertex 4.59533 -17.15 0
      vertex -4.59533 -17.15 0
    endloop
  endfacet
  facet normal -0.48625 -0.84227 -0.232685
    outer loop
      vertex 4.59533 17.15 0
      vertex 6.35883 15.6899 1.6
      vertex 4.49276 16.7672 1.6
    endloop
  endfacet
  facet normal -0.486277 -0.842264 -0.232651
    outer loop
      vertex 6.35883 15.6899 1.6
      vertex 4.59533 17.15 0
      vertex 12.5547 12.5547 0
    endloop
  endfacet
  facet normal -0.612327 0.353522 0.707162
    outer loop
      vertex 13.7992 -13.7992 18
      vertex 18.85 -5.05084 18
      vertex 13.3599 -13.3599 17.4
    endloop
  endfacet
  facet normal 0.353522 -0.612327 0.707162
    outer loop
      vertex -13.3599 13.3599 17.4
      vertex -5.05084 18.85 18
      vertex -13.7992 13.7992 18
    endloop
  endfacet
  facet normal -0.612371 -0.353556 0.707107
    outer loop
      vertex 18.25 4.89007 17.4
      vertex 18.85 5.05084 18
      vertex 13.3599 13.3599 17.4
    endloop
  endfacet
  facet normal 0.353556 0.612371 0.707107
    outer loop
      vertex -5.05084 -18.85 18
      vertex -4.89007 -18.25 17.4
      vertex -13.3599 -13.3599 17.4
    endloop
  endfacet
  facet normal 0.612371 0.353556 0.707107
    outer loop
      vertex -13.3599 -13.3599 17.4
      vertex -18.25 -4.89007 17.4
      vertex -18.85 -5.05084 18
    endloop
  endfacet
  facet normal 0.612327 0.353522 0.707162
    outer loop
      vertex -13.7992 -13.7992 18
      vertex -13.3599 -13.3599 17.4
      vertex -18.85 -5.05084 18
    endloop
  endfacet
  facet normal 0.612371 -0.353556 0.707107
    outer loop
      vertex -18.25 4.89007 17.4
      vertex -13.3599 13.3599 17.4
      vertex -18.85 5.05084 18
    endloop
  endfacet
  facet normal 0 -0.707107 0.707107
    outer loop
      vertex -4.89007 18.25 17.4
      vertex 5.05084 18.85 18
      vertex -5.05084 18.85 18
    endloop
  endfacet
  facet normal 0 -0.707107 0.707107
    outer loop
      vertex 5.05084 18.85 18
      vertex -4.89007 18.25 17.4
      vertex 4.89007 18.25 17.4
    endloop
  endfacet
  facet normal -0.353556 0.612371 0.707107
    outer loop
      vertex 5.05084 -18.85 18
      vertex 13.3599 -13.3599 17.4
      vertex 4.89007 -18.25 17.4
    endloop
  endfacet
  facet normal -0.353522 -0.612327 0.707162
    outer loop
      vertex 13.3599 13.3599 17.4
      vertex 13.7992 13.7992 18
      vertex 5.05084 18.85 18
    endloop
  endfacet
  facet normal 0.353556 -0.612371 0.707107
    outer loop
      vertex -4.89007 18.25 17.4
      vertex -5.05084 18.85 18
      vertex -13.3599 13.3599 17.4
    endloop
  endfacet
  facet normal -0.612327 -0.353522 0.707162
    outer loop
      vertex 18.85 5.05084 18
      vertex 13.7992 13.7992 18
      vertex 13.3599 13.3599 17.4
    endloop
  endfacet
  facet normal -0.612371 0.353556 0.707107
    outer loop
      vertex 18.85 -5.05084 18
      vertex 18.25 -4.89007 17.4
      vertex 13.3599 -13.3599 17.4
    endloop
  endfacet
  facet normal 0.353522 0.612327 0.707162
    outer loop
      vertex -5.05084 -18.85 18
      vertex -13.3599 -13.3599 17.4
      vertex -13.7992 -13.7992 18
    endloop
  endfacet
  facet normal -0.353522 0.612327 0.707162
    outer loop
      vertex 13.7992 -13.7992 18
      vertex 13.3599 -13.3599 17.4
      vertex 5.05084 -18.85 18
    endloop
  endfacet
  facet normal -0.353556 -0.612371 0.707107
    outer loop
      vertex 13.3599 13.3599 17.4
      vertex 5.05084 18.85 18
      vertex 4.89007 18.25 17.4
    endloop
  endfacet
  facet normal 0 0.707107 0.707107
    outer loop
      vertex 4.89007 -18.25 17.4
      vertex -5.05084 -18.85 18
      vertex 5.05084 -18.85 18
    endloop
  endfacet
  facet normal 0 0.707107 0.707107
    outer loop
      vertex -5.05084 -18.85 18
      vertex 4.89007 -18.25 17.4
      vertex -4.89007 -18.25 17.4
    endloop
  endfacet
  facet normal 0.707107 0 0.707107
    outer loop
      vertex -18.85 5.05084 18
      vertex -18.25 -4.89007 17.4
      vertex -18.25 4.89007 17.4
    endloop
  endfacet
  facet normal 0.707107 0 0.707107
    outer loop
      vertex -18.25 -4.89007 17.4
      vertex -18.85 5.05084 18
      vertex -18.85 -5.05084 18
    endloop
  endfacet
  facet normal -0.707107 0 0.707107
    outer loop
      vertex 18.25 -4.89007 17.4
      vertex 18.85 5.05084 18
      vertex 18.25 4.89007 17.4
    endloop
  endfacet
  facet normal -0.707107 0 0.707107
    outer loop
      vertex 18.85 5.05084 18
      vertex 18.25 -4.89007 17.4
      vertex 18.85 -5.05084 18
    endloop
  endfacet
  facet normal 0.612327 -0.353522 0.707162
    outer loop
      vertex -13.3599 13.3599 17.4
      vertex -13.7992 13.7992 18
      vertex -18.85 5.05084 18
    endloop
  endfacet
endsolid OpenSCAD_Model
